<?xml version="1.0" standalone="no"?>
<!DOCTYPE svg PUBLIC "-//W3C//DTD SVG 20010904//EN"
 "http://www.w3.org/TR/2001/REC-SVG-20010904/DTD/svg10.dtd">
<svg version="1.0" xmlns="http://www.w3.org/2000/svg"
 width="1280.000000pt" height="684.000000pt" viewBox="0 0 1280.000000 684.000000"
 preserveAspectRatio="xMidYMid meet">
<metadata>
Created by potrace 1.15, written by Peter Selinger 2001-2017
</metadata>
<g transform="translate(0.000000,684.000000) scale(0.100000,-0.100000)"
fill="#000000" stroke="none">
<path d="M3815 6099 c-27 -5 -104 -16 -170 -24 -219 -26 -289 -36 -435 -61
-294 -52 -316 -54 -590 -54 -254 0 -420 12 -540 39 -25 5 -110 15 -190 21 -80
5 -161 13 -180 15 -95 14 -585 28 -1117 32 l-593 4 0 -1711 c0 -1626 1 -1710
18 -1701 9 5 81 21 159 35 78 14 170 35 205 46 103 33 333 80 492 101 82 10
165 23 185 29 20 5 92 19 161 30 69 12 163 27 210 35 84 14 321 46 475 65 147
17 258 20 520 12 164 -5 268 -13 282 -20 13 -8 29 -35 42 -75 16 -48 34 -76
79 -122 33 -33 71 -69 86 -80 32 -24 48 -67 76 -207 30 -146 44 -179 134 -305
74 -105 83 -114 133 -133 35 -13 78 -20 123 -20 38 0 72 -5 75 -10 4 -6 7
-111 8 -233 2 -207 3 -225 24 -262 33 -63 216 -233 280 -261 29 -13 57 -32 60
-42 4 -9 25 -44 48 -77 23 -33 56 -90 72 -127 47 -101 154 -178 328 -236 184
-62 254 -51 426 64 l98 66 63 -20 c165 -54 301 -54 409 -2 36 17 76 44 88 61
26 34 36 35 121 8 69 -21 215 -53 290 -64 88 -12 176 -37 245 -70 39 -19 93
-39 120 -46 33 -8 72 -30 115 -65 37 -29 80 -54 100 -58 87 -17 176 -39 184
-47 6 -5 32 -9 58 -9 52 0 108 28 202 102 45 36 96 50 96 28 0 -17 103 -69
160 -81 30 -6 75 -19 99 -30 35 -15 68 -19 166 -19 67 0 137 5 156 12 45 15
103 61 129 102 24 40 74 66 127 66 31 0 43 -6 64 -33 39 -48 106 -67 238 -67
115 0 189 15 276 55 56 25 135 89 135 109 0 6 11 22 25 36 13 14 35 37 47 52
23 26 26 27 208 38 102 6 229 20 283 30 90 18 103 23 160 68 81 65 93 79 132
154 l32 63 129 7 c207 10 352 28 454 55 52 14 145 38 205 53 131 32 428 130
503 166 99 46 130 48 492 34 322 -11 540 -31 710 -65 41 -8 102 -20 135 -25
79 -14 130 -29 377 -111 113 -38 260 -79 327 -93 66 -13 125 -27 131 -31 7 -4
10 476 10 1532 l0 1538 -637 0 c-1240 0 -1899 32 -2148 106 -165 48 -182 60
-606 435 -267 235 -351 303 -499 405 -41 29 -96 71 -121 95 -26 23 -71 55
-100 70 -30 15 -80 45 -113 67 -71 48 -237 107 -301 107 -25 0 -96 13 -158 29
-62 16 -132 33 -157 36 -25 4 -76 16 -115 27 -147 43 -225 58 -371 69 -188 15
-436 1 -527 -30 -31 -11 -85 -25 -120 -32 -70 -13 -140 -60 -196 -129 -67 -84
-168 -116 -232 -72 -14 9 -53 35 -87 58 -33 23 -82 47 -109 53 -26 7 -97 28
-158 47 -60 18 -130 38 -155 44 -104 25 -179 42 -250 56 -41 9 -104 22 -140
30 -112 25 -202 43 -275 54 -139 21 -243 43 -380 80 -77 21 -169 41 -205 45
-36 4 -103 18 -150 32 -159 46 -281 62 -460 62 -91 -1 -187 -5 -215 -10z"/>
</g>
</svg>
