<?xml version="1.0" standalone="no"?>
<!DOCTYPE svg PUBLIC "-//W3C//DTD SVG 20010904//EN"
 "http://www.w3.org/TR/2001/REC-SVG-20010904/DTD/svg10.dtd">
<svg version="1.0" xmlns="http://www.w3.org/2000/svg"
 width="865.000000pt" height="1280.000000pt" viewBox="0 0 865.000000 1280.000000"
 preserveAspectRatio="xMidYMid meet">
<metadata>
Created by potrace 1.15, written by Peter Selinger 2001-2017
</metadata>
<g transform="translate(0.000000,1280.000000) scale(0.100000,-0.100000)"
fill="#000000" stroke="none">
<path d="M1760 12789 c-287 -12 -388 -40 -570 -162 -211 -141 -342 -285 -489
-537 -132 -226 -197 -377 -244 -565 -40 -158 -51 -248 -50 -420 1 -317 51
-495 206 -737 29 -46 75 -119 102 -163 54 -88 234 -328 290 -388 43 -46 323
-206 451 -259 130 -53 253 -73 361 -58 46 7 107 9 136 6 107 -13 243 -9 299 9
46 14 58 23 72 53 18 37 36 161 36 247 0 57 13 107 64 248 20 55 45 145 57
200 19 90 20 122 15 267 -7 169 1 263 31 368 14 50 16 52 49 52 l34 0 0 -57
c0 -32 -11 -134 -25 -227 -15 -104 -25 -214 -25 -283 0 -158 -24 -299 -82
-492 l-50 -163 6 -147 c10 -240 16 -291 32 -291 8 0 41 55 78 128 60 120 67
129 127 172 35 25 70 49 78 54 8 5 69 21 135 36 106 23 121 29 119 46 -51 400
-53 423 -43 649 6 131 16 246 25 285 l16 66 120 48 c65 27 119 54 119 61 0 8
9 10 25 7 14 -2 25 -8 25 -12 0 -5 -24 -29 -52 -55 -69 -61 -103 -113 -129
-194 -19 -57 -22 -98 -27 -303 -2 -130 -2 -248 2 -262 8 -32 32 -56 57 -56 33
0 118 89 199 210 136 203 204 349 251 533 19 79 23 86 43 82 11 -3 63 -12 115
-20 52 -8 96 -16 98 -19 3 -2 -5 -50 -16 -106 -61 -297 -42 -635 49 -905 22
-66 42 -101 88 -158 32 -39 76 -99 97 -132 273 -430 719 -741 1210 -846 155
-33 385 -37 544 -10 711 121 1230 676 1374 1466 29 162 31 507 3 660 -37 209
-89 363 -183 550 -91 180 -142 254 -258 371 -210 212 -461 336 -810 401 -111
20 -417 28 -540 14 -542 -62 -961 -289 -1247 -674 -70 -94 -160 -245 -190
-317 -11 -27 -26 -50 -32 -50 -16 0 -236 29 -262 35 -20 5 -21 12 -27 197 -9
311 -56 555 -138 717 -65 129 -252 389 -344 478 -64 63 -93 82 -226 148 -234
115 -453 180 -698 205 -111 11 -208 11 -481 -1z m1370 -1305 c73 -22 167 -111
205 -195 25 -57 53 -185 42 -196 -3 -3 -34 -2 -68 2 l-61 7 5 43 4 43 -90 79
c-133 115 -119 109 -188 88 -50 -15 -69 -29 -129 -90 -38 -40 -70 -78 -70 -84
0 -8 -16 -10 -52 -5 -29 4 -55 8 -57 10 -2 2 4 13 13 23 10 11 30 46 45 78 58
120 188 208 317 212 17 1 55 -6 84 -15z"/>
<path d="M3609 9606 l-156 -241 -61 -315 -61 -315 -6 -365 c-3 -201 -8 -385
-11 -409 l-6 -43 -35 5 c-20 4 -38 8 -41 11 -2 3 7 243 21 533 l26 528 95 304
c53 168 96 308 96 313 0 4 -116 8 -257 8 l-258 0 -194 -123 -195 -123 -52
-255 c-28 -140 -76 -358 -106 -486 l-55 -231 97 -189 c119 -233 167 -313 189
-313 9 0 61 7 115 15 55 8 103 15 107 15 7 0 59 -122 59 -139 0 -5 -102 -50
-227 -101 l-228 -92 -160 -179 -160 -179 -26 -227 -26 -228 18 -330 18 -330
104 -310 c61 -181 151 -422 217 -578 l112 -268 -23 -145 c-13 -79 -25 -148
-28 -152 -4 -5 -134 -57 -291 -117 -254 -97 -318 -126 -590 -270 -285 -151
-327 -177 -645 -399 -187 -131 -344 -242 -348 -246 -12 -11 -79 -648 -73 -690
3 -19 30 -125 60 -235 35 -127 86 -366 140 -652 l86 -452 0 -453 0 -453 -273
-114 c-225 -94 -298 -130 -425 -209 -144 -88 -154 -96 -149 -121 3 -14 16 -79
28 -144 l23 -118 656 6 c360 3 777 8 926 11 l270 6 -149 427 -149 426 -89 440
-89 440 106 316 105 316 -94 296 -94 297 31 4 c17 3 96 10 176 15 80 6 269 20
420 31 l275 21 460 136 c574 169 596 175 599 171 2 -2 150 -208 329 -458 l326
-455 359 -271 358 -271 435 -186 434 -185 475 -137 c261 -76 636 -183 833
-240 197 -57 361 -105 364 -108 6 -7 112 -309 113 -322 0 -6 -103 -102 -230
-214 -126 -112 -230 -211 -230 -220 0 -9 7 -67 17 -129 15 -105 18 -112 39
-112 13 0 154 -11 314 -25 160 -14 296 -22 303 -18 199 122 1001 727 993 748
-5 13 -421 632 -436 648 -4 4 -112 35 -240 68 l-232 60 -452 225 -451 226
-180 177 -180 178 -441 68 -442 69 -216 457 c-207 440 -221 467 -364 686
l-149 228 -113 339 -112 338 -138 217 -138 216 -143 75 -143 75 -93 270 -94
270 91 485 c56 303 109 624 140 855 44 327 50 401 57 635 l8 264 -96 444 -96
444 9 243 10 243 -117 289 c-64 158 -120 291 -123 294 -4 4 -77 -102 -163
-235z"/>
</g>
</svg>
