<svg width="231" height="65" viewBox="0 0 231 65" fill="none" xmlns="http://www.w3.org/2000/svg">
<path fill-rule="evenodd" clip-rule="evenodd" d="M30.302 21.1045C36.0914 25.3276 43.2498 27.8682 50.6442 27.8682C55.6311 27.8682 61.1171 26.5747 66.1614 23.8903C66.9234 23.4845 67.5607 24.516 66.8155 25.2093C62.3141 29.3689 55.7896 31.5883 50.1721 31.5883C42.2956 31.5883 35.2046 27.9359 29.84 21.8612C29.4186 21.3835 29.7962 20.7325 30.302 21.1045ZM70.6088 20.6903C71.1011 21.4554 70.4807 26.7607 68.0631 29.2928C67.6922 29.6818 67.3381 29.4746 67.5034 28.9589C68.0462 27.2595 69.2634 23.4507 68.6868 22.5249C68.1136 21.6034 64.8834 22.0895 63.4335 22.3051C62.9918 22.3727 62.9244 21.8908 63.3222 21.5442C65.895 19.2741 70.1165 19.9293 70.6088 20.6903ZM79.099 2.47056C82.6563 2.47056 84.5816 6.3005 84.5816 11.1704C84.5816 15.8754 82.454 19.6081 79.099 19.6081C75.6058 19.6081 73.7041 15.7781 73.7041 11.0055C73.7041 6.20327 75.6295 2.47056 79.099 2.47056ZM55.9515 2.3226C57.1181 2.3226 58.6422 2.71151 59.5626 3.81907C60.671 5.11622 60.626 6.82541 60.6187 8.69292L60.6181 13.6729C60.6181 15.0806 61.0833 15.6978 61.5217 16.4587C61.6734 16.7293 61.7072 17.0548 61.5116 17.2577C61.0227 17.7692 60.1527 18.7203 59.6739 19.253L59.6706 19.2445C59.5121 19.4221 59.2828 19.4347 59.1041 19.3164C58.3083 18.4878 58.1633 18.1032 57.7284 17.3126C56.4134 18.9951 55.4794 19.4982 53.7766 19.4982C51.7569 19.4982 50.189 17.9383 50.189 14.8143C50.189 12.3751 51.241 10.7138 52.7448 9.90217C54.0464 9.18352 55.8638 9.05671 57.253 8.85802V8.46911C57.253 7.75469 57.2968 6.90923 56.9596 6.29205C56.6696 5.73827 56.1099 5.50999 55.6143 5.50999C54.7005 5.50999 53.8879 6.09759 53.689 7.31505C53.6485 7.5856 53.49 7.85192 53.2708 7.86461L50.9477 7.55178C50.7521 7.49683 50.5329 7.29815 50.5903 6.92192C51.123 3.38789 53.6721 2.3226 55.9515 2.3226ZM24.5226 2.3226C25.6893 2.3226 27.2134 2.71151 28.1339 3.81907C29.3005 5.18449 29.1892 7.00646 29.1892 8.98907V13.6729C29.1892 15.0806 29.6546 15.6978 30.0929 16.4587C30.248 16.7293 30.2817 17.0548 30.0861 17.2577C29.5973 17.7692 28.7273 18.7203 28.2485 19.253L28.2418 19.2445C28.0833 19.4221 27.854 19.4347 27.6753 19.3164C26.8796 18.4878 26.7379 18.1032 26.2996 17.3126C24.9846 18.9951 24.054 19.4982 22.3478 19.4982C20.3315 19.4982 18.7602 17.9383 18.7602 14.8143C18.7602 12.3751 19.8156 10.7138 21.316 9.90217C22.6176 9.18352 24.435 9.05671 25.8242 8.85802V8.46911C25.8242 7.75469 25.868 6.90923 25.5342 6.29205C25.2408 5.73827 24.6811 5.50999 24.1888 5.50999C23.2751 5.50999 22.4591 6.09759 22.2602 7.31505C22.2197 7.5856 22.0612 7.85192 21.8454 7.86461L19.5189 7.55178C19.3233 7.49683 19.1075 7.29815 19.1614 6.92192C19.6976 3.38789 22.2433 2.3226 24.5226 2.3226ZM44.7199 2.47056C45.7247 2.47056 46.8239 2.99052 47.4949 4.15725C48.2536 5.45504 48.0984 7.34042 48.0984 8.9933L48.0951 18.7288C48.0951 19.0374 47.8894 19.2868 47.6332 19.2868H45.2392C44.9998 19.2657 44.8075 19.0247 44.8075 18.7288V10.5532C44.8075 9.90217 44.8547 8.27888 44.7401 7.66169C44.5614 6.62601 44.0253 6.33432 43.3307 6.33432C42.7508 6.33432 42.1438 6.82046 41.8976 7.59829C41.7062 8.20326 41.6779 9.12534 41.6748 9.91699L41.6751 18.7288C41.6751 19.0374 41.4694 19.2868 41.2132 19.2868H38.8192C38.5764 19.2657 38.3876 19.0247 38.3876 18.7288L38.3843 10.5532C38.3843 8.83266 38.6102 6.3005 36.9074 6.3005C35.3566 6.3005 35.2562 8.30019 35.2517 10.0006L35.2518 18.7288C35.2518 19.0374 35.0461 19.2868 34.7898 19.2868H32.3925C32.1632 19.2657 31.9812 19.0501 31.9643 18.7753V3.34984C31.9643 3.04125 32.1699 2.79606 32.4262 2.79606H34.6617C34.8944 2.80873 35.0798 3.03279 35.0967 3.31179V5.32822H35.1405C35.7239 3.37943 36.8197 2.47056 38.2966 2.47056C39.797 2.47056 40.7344 3.37943 41.4088 5.32822C41.9887 3.37943 43.3071 2.47056 44.7199 2.47056ZM92.7954 2.47056C93.871 2.47056 94.9197 2.9567 95.594 4.2883C96.2212 5.52268 96.2212 7.59829 96.2212 9.09052V18.8007C96.1942 19.0712 95.9953 19.2868 95.7593 19.2868H93.3551C93.1359 19.2657 92.9539 19.0627 92.9303 18.8007V10.4221C92.9303 8.73543 93.0854 6.26668 91.4298 6.26668C90.8465 6.26668 90.3104 6.75705 90.044 7.50106C89.7068 8.44375 89.663 9.38221 89.663 10.4221V18.7288C89.6596 19.0374 89.4505 19.2868 89.1943 19.2868H86.807C86.5677 19.2657 86.3754 19.0247 86.3754 18.7288L86.3721 3.29911C86.3923 3.01588 86.5913 2.79606 86.834 2.79606H89.056C89.2651 2.80873 89.4371 2.98629 89.4842 3.22725V5.58608H89.5281C90.1991 3.47666 91.1398 2.47056 92.7954 2.47056ZM71.8597 2.75379C72.1126 2.75379 72.3149 2.98206 72.3149 3.31179V5.2014C72.3115 5.51845 72.0991 5.93272 71.7214 6.58796L67.6382 13.897C69.1555 13.8505 70.7571 14.1337 72.1328 15.106C72.4431 15.3258 72.5273 15.6471 72.551 15.9641V18.3187C72.551 18.64 72.2677 19.0162 71.971 18.8218C69.5466 17.2281 66.3266 17.0548 63.6459 18.8387C63.3729 19.0247 63.0862 18.6527 63.0862 18.3314V16.0952C63.0862 15.7359 63.0896 15.1229 63.3762 14.5776L68.1069 6.07223H63.9899C63.737 6.07223 63.5347 5.84818 63.5347 5.51845V3.31179C63.5347 2.97783 63.737 2.75379 63.9798 2.75379H71.8597ZM57.253 11.2676C55.5165 11.2676 53.6855 11.7326 53.6855 14.2943C53.6855 15.5921 54.2251 16.4714 55.1456 16.4714C55.8166 16.4714 56.4235 15.9515 56.8045 15.106C57.2766 14.0661 57.253 13.0896 57.253 11.9186V11.2676ZM25.8242 11.2676C24.091 11.2676 22.2602 11.7326 22.2602 14.2943C22.2602 15.5921 22.7963 16.4714 23.7168 16.4714C24.3911 16.4714 24.9947 15.9515 25.3757 15.106C25.8478 14.0661 25.8242 13.0896 25.8242 11.9186V11.2676ZM79.1192 5.61991C77.3524 5.61991 77.2411 8.6382 77.2411 10.5194C77.2411 12.4047 77.2175 16.4291 79.099 16.4291C80.9569 16.4291 81.0446 13.1826 81.0446 11.2042C81.0446 9.90217 81.0007 8.34652 80.6871 7.11214C80.4174 6.03841 79.8813 5.61991 79.1192 5.61991Z" fill="#747873"/>
<path d="M141.501 0.96167H142.192C144.591 1.02633 146.951 2.2217 148.646 4.33779C148.021 5.12933 147.381 5.88851 146.769 6.68006C145.817 5.61392 144.669 4.79008 143.418 4.49931C141.566 4.01472 139.571 4.45084 138.02 5.75935C136.324 7.13236 135.177 9.45852 134.93 11.9461C134.655 14.4015 135.216 16.986 136.507 18.8922C137.745 20.7499 139.636 21.9129 141.592 21.9936C143.418 22.1229 145.322 21.4283 146.651 19.8453C147.694 18.7307 148.176 17.0345 148.333 15.3868C146.169 15.3868 144.005 15.403 141.84 15.3868V12.0592H150.954C151.423 15.6291 150.746 19.6514 148.555 22.2036C147.095 24.0128 145.073 25.079 143.014 25.289C141.018 25.5313 138.959 25.0629 137.185 23.8675C135.059 22.4621 133.365 20.0876 132.53 17.293C131.748 14.7245 131.735 11.8169 132.465 9.23233C133.13 6.87388 134.408 4.79009 136.051 3.33631C137.629 1.89864 139.545 1.10709 141.501 0.96167Z" fill="#747873"/>
<path d="M193.787 1.80179H196.578V24.8691C195.652 24.8691 194.713 24.8853 193.787 24.853C193.8 17.18 193.787 9.49091 193.787 1.80179Z" fill="#747873"/>
<path d="M157.161 9.79786C158.882 9.39403 160.747 9.84633 162.168 11.1225C163.459 12.2532 164.358 14.0301 164.632 15.9685C164.985 18.2139 164.541 20.6692 163.367 22.4461C162.103 24.433 160.029 25.4992 158.008 25.3376C156.157 25.2084 154.357 24.0615 153.262 22.1876C152.023 20.12 151.724 17.277 152.401 14.8539C153.08 12.2532 154.996 10.2663 157.161 9.79786ZM157.552 12.867C156.847 13.0932 156.196 13.5939 155.727 14.3047C154.462 16.1785 154.54 19.2315 155.935 20.9762C156.731 21.9776 157.93 22.4461 159.039 22.1715C160.068 21.9453 160.968 21.0892 161.463 19.9584C162.324 18.0362 162.077 15.387 160.76 13.8847C159.912 12.9155 158.673 12.5117 157.552 12.867Z" fill="#747873"/>
<path d="M170.982 9.79772C172.951 9.32924 175.102 10.0077 176.576 11.72C178.975 14.3853 179.236 19.3768 177.189 22.446C175.95 24.3844 173.942 25.4506 171.96 25.3375C170.069 25.2728 168.204 24.1098 167.083 22.1875C165.819 20.0714 165.545 17.1638 166.262 14.6923C166.979 12.1723 168.857 10.25 170.982 9.79772ZM171.373 12.8669C170.669 13.0931 170.017 13.5938 169.548 14.2884C168.296 16.1299 168.348 19.1345 169.691 20.8953C170.486 21.9452 171.726 22.4622 172.873 22.1714C173.89 21.9291 174.803 21.0891 175.298 19.9584C176.146 18.0199 175.897 15.3707 174.567 13.8684C173.72 12.8992 172.482 12.5115 171.373 12.8669Z" fill="#747873"/>
<path d="M182.704 10.7345C184.203 9.57143 186.198 9.24836 187.815 10.2498C188.324 10.5245 188.741 10.9929 189.145 11.4614C189.159 11.0253 189.145 10.573 189.159 10.1207C190.032 10.1368 190.906 10.1207 191.793 10.1368V24.3842C191.779 26.5327 191.335 28.8103 190.084 30.3772C188.716 32.1056 186.616 32.6387 184.725 32.2834C182.704 31.9118 180.944 30.0864 180.161 27.7765C180.944 27.3081 181.766 26.9365 182.573 26.5004C183.03 27.8249 183.956 28.9557 185.116 29.2142C186.277 29.4726 187.619 29.1173 188.376 27.9219C189.184 26.6942 189.184 25.0142 189.145 23.512C188.545 24.2389 187.854 24.885 187.02 25.1273C185.208 25.7573 183.212 24.982 181.817 23.4635C180.409 21.9451 179.574 19.6028 179.653 17.2767C179.692 14.6436 180.891 12.1075 182.704 10.7345ZM185.403 12.8021C184.608 12.9636 183.865 13.5129 183.356 14.2721C182.13 16.0813 182.13 18.9728 183.369 20.7497C184.073 21.7997 185.208 22.3812 186.303 22.2359C187.333 22.1066 188.285 21.2989 188.793 20.1844C189.654 18.2944 189.511 15.7259 188.35 14.0783C187.633 13.0606 186.485 12.5598 185.403 12.8021Z" fill="#747873"/>
<path d="M199.928 11.5584C201.494 9.74921 203.906 9.13538 205.914 10.0885C207.818 10.9769 209.03 13.2222 209.642 15.5322C206.813 16.986 203.996 18.4237 201.167 19.8775C201.558 20.7983 202.158 21.6383 202.967 21.9775C204.101 22.4782 205.457 22.3005 206.409 21.3636C206.787 21.0083 207.087 20.5398 207.374 20.0875C208.09 20.6852 208.808 21.2667 209.526 21.8644C208.508 23.7544 206.8 25.079 204.962 25.289C202.927 25.5959 200.763 24.6267 199.446 22.6559C197.282 19.5544 197.49 14.353 199.928 11.5584ZM201.323 14.5468C200.88 15.3384 200.698 16.3075 200.711 17.2606C202.602 16.2914 204.493 15.3222 206.383 14.3368C206.07 13.4322 205.314 12.883 204.545 12.7376C203.306 12.463 202.015 13.2869 201.323 14.5468Z" fill="#747873"/>
<path d="M11.9219 49.363V64.1791H0V49.363H11.9219ZM25.088 49.363V64.1791H13.1661V49.363H25.088ZM61.3785 44.1906C61.8455 44.1906 62.3313 44.2631 62.7983 44.384C63.3036 44.5048 63.6734 44.6982 64.0041 44.8674L64.0237 44.8915V47.9611L63.9265 47.8644C63.1681 47.1877 62.3313 46.8493 61.5149 46.8493C60.5425 46.8493 59.7449 47.2602 59.1416 48.0578C58.5391 48.8554 58.2477 49.943 58.2477 51.3207C58.2477 52.6501 58.5391 53.7135 59.1228 54.487C59.6861 55.2846 60.4838 55.6471 61.4953 55.6471C61.8455 55.6471 62.2537 55.5505 62.7011 55.3571C63.1289 55.1879 63.5567 54.8979 63.9265 54.5595L64.0237 54.4628V57.3632L64.0041 57.3874C63.1869 57.9674 62.1566 58.2816 60.9508 58.2816C59.9009 58.2816 58.9669 57.9916 58.1693 57.4357C57.3333 56.8798 56.7112 56.058 56.2638 55.0429C55.8164 54.0036 55.5829 52.8676 55.5829 51.5866C55.5829 50.1122 55.8164 48.8312 56.2834 47.7194C56.7308 46.6318 57.4304 45.7617 58.3056 45.1332C59.1808 44.5048 60.2307 44.1906 61.3785 44.1906ZM78.0265 44.2148C79.6985 44.2148 81.0407 44.819 81.9551 46.0517C82.9078 47.2844 83.3748 48.9763 83.3748 51.1032C83.3748 53.2543 82.8882 54.9945 81.8767 56.2997C80.8848 57.6049 79.5042 58.2575 77.7735 58.2575C76.1203 58.2575 74.7977 57.6291 73.8254 56.4206C72.853 55.1879 72.3477 53.496 72.3477 51.4174C72.3477 49.1938 72.8335 47.4294 73.845 46.1484C74.8369 44.8674 76.2566 44.2148 78.0265 44.2148ZM98.5827 44.2148C100.255 44.2148 101.598 44.819 102.511 46.0517C103.465 47.2844 103.931 48.9763 103.931 51.1032C103.931 53.2543 103.445 54.9945 102.434 56.2997C101.442 57.6049 100.061 58.2575 98.3304 58.2575C96.6772 58.2575 95.3546 57.6291 94.3823 56.4206C93.41 55.1879 92.9038 53.496 92.9038 51.4174C92.9038 49.1938 93.41 47.4294 94.4019 46.1484C95.3938 44.8674 96.8135 44.2148 98.5827 44.2148ZM88.781 44.1906C89.1312 44.1906 89.559 44.239 90.026 44.3356C90.4921 44.4565 90.8816 44.6015 91.173 44.7465L91.2318 44.7707V47.7194L91.1347 47.6227C90.8228 47.3327 90.4342 47.1152 90.0064 46.9702C89.5786 46.8251 89.1312 46.7285 88.7034 46.7285C88.2168 46.7285 87.8862 46.8493 87.5947 47.091C87.3033 47.3327 87.1865 47.6952 87.1865 48.0578C87.1865 48.4929 87.2837 48.8312 87.478 49.0729C87.7115 49.3388 88.2169 49.653 89.0145 50.0639C90.026 50.5473 90.7256 51.1515 91.2898 51.7316C91.7176 52.3359 91.9119 53.1335 91.9119 54.0278C91.9119 55.3088 91.5037 56.2997 90.7256 57.0732C89.9672 57.8708 88.8977 58.2333 87.5947 58.2333C87.167 58.2333 86.6804 58.1366 86.1359 58.0158C85.5913 57.8466 85.1439 57.7016 84.7749 57.484L84.7161 57.4599V54.3903L84.8133 54.487C85.2223 54.8495 85.7081 55.1637 86.233 55.3813C86.7588 55.5988 87.2053 55.6955 87.6339 55.6955C88.7418 55.6955 89.2863 55.2604 89.2863 54.3661C89.2863 54.0519 89.2284 53.8102 89.1312 53.6169C88.9949 53.4477 88.8202 53.2301 88.5475 53.0368C88.2756 52.8434 87.8283 52.6017 87.2445 52.2875C86.5449 51.925 86.0387 51.5383 85.6885 51.1999C85.339 50.8373 85.086 50.4023 84.9104 49.943C84.7357 49.4838 84.6582 48.9279 84.6582 48.2995C84.6582 47.1152 85.0272 46.1 85.8052 45.3508C86.5832 44.5532 87.5752 44.1906 88.781 44.1906ZM109.902 37.8581C110.505 37.8581 110.972 37.9548 111.322 38.0998L111.38 38.124V40.8552L111.283 40.7827C110.874 40.5652 110.505 40.4685 110.154 40.4685C109.649 40.4685 109.241 40.6618 108.968 41.0486C108.696 41.4353 108.54 42.0395 108.54 42.8129V44.5048H112.352V41.4836L112.411 41.4594L114.822 40.5652L114.9 40.541V44.5048H117.448V47.091H114.861V53.4235C114.861 54.2453 114.978 54.8012 115.211 55.1396C115.464 55.5021 115.814 55.6471 116.32 55.6471C116.456 55.6471 116.631 55.623 116.825 55.5505C117.059 55.4779 117.195 55.3813 117.35 55.2604L117.448 55.1637V57.7499L117.428 57.7741C117.272 57.8708 117.001 57.9916 116.631 58.0883C116.281 58.1608 115.912 58.2333 115.561 58.2333C113.422 58.2333 112.352 56.8073 112.352 53.9794V47.091H108.54V57.8949H105.992V47.0668H104.223V44.5048H105.992V42.6437C105.992 41.7012 106.168 40.8794 106.498 40.1543C106.829 39.405 107.277 38.8491 107.879 38.4382C108.482 38.0757 109.144 37.8581 109.902 37.8581ZM48.8542 39.2358V57.8949H46.267V46.0517C46.2866 45.3024 46.3258 44.0698 46.3837 42.6921H46.3258C46.2286 43.2238 46.1315 43.8522 46.0335 44.1664L41.5604 57.9191H39.8493L35.337 44.2873C35.2399 43.9489 35.1044 43.4172 34.9876 42.6921H34.9288C34.9484 42.9821 34.9876 43.3688 35.0064 43.8764C35.0203 44.6015 35.0244 45.2279 35.026 45.791V57.9674H32.5956V39.2842H36.271L40.024 51.0065C40.3742 52.0217 40.5881 52.8676 40.7049 53.4235H40.7636L41.4633 50.9582L45.3142 39.2358H48.8542ZM53.8326 44.5048V57.8949H51.3042V44.5048H53.8326ZM71.1419 44.2873C71.5697 44.2873 71.9191 44.3598 72.0946 44.5048L72.1525 44.529V47.6711L72.0554 47.5744C71.9191 47.4536 71.7248 47.3569 71.4529 47.2602C71.1606 47.2119 70.928 47.1393 70.6945 47.1393C70.0332 47.1393 69.4886 47.5019 69.0609 48.227C68.6331 48.9279 68.4379 49.8947 68.4379 51.0549V57.8949H65.9096V44.5048H68.4379V46.8493H68.4576C68.7106 46.1 69.0021 45.4716 69.4299 45.0366C69.936 44.529 70.519 44.2873 71.1419 44.2873ZM77.9098 46.801C76.9954 46.801 76.2762 47.1877 75.7504 47.9611C75.2451 48.7346 74.9724 49.8222 74.9724 51.2482C74.9724 52.6259 75.2255 53.7135 75.7504 54.4628C76.2762 55.2604 77.015 55.623 77.9286 55.623C78.843 55.623 79.5818 55.2604 80.0488 54.5112C80.5354 53.7619 80.7493 52.6259 80.7876 51.1757C80.7876 49.7497 80.5158 48.662 80.0096 47.9128C79.5042 47.1635 78.8038 46.801 77.9098 46.801ZM98.4471 46.801C97.5328 46.801 96.8135 47.1877 96.2878 47.9611C95.7824 48.7346 95.5097 49.8222 95.5097 51.2482C95.5097 52.6259 95.7628 53.7135 96.2878 54.4628C96.8135 55.2604 97.5328 55.623 98.4659 55.623C99.3803 55.623 100.119 55.2604 100.586 54.5112C101.073 53.7619 101.325 52.6259 101.325 51.1757C101.325 49.7497 101.053 48.662 100.547 47.9128C100.042 47.1635 99.3223 46.801 98.4471 46.801ZM11.9219 33V47.8161H0V33H11.9219ZM25.088 33V47.8161H13.1661V33H25.088ZM52.5875 38.8491C53.0349 38.8491 53.4048 39.0425 53.6578 39.3808C53.9493 39.7434 54.1052 40.1784 54.1052 40.686C54.1052 41.1936 53.9493 41.6286 53.6578 41.967C53.3852 42.2812 53.0162 42.4746 52.5875 42.4746C52.1598 42.4746 51.8103 42.3054 51.5181 41.967C51.2266 41.6286 51.0707 41.1936 51.0707 40.686C51.0707 40.1543 51.2266 39.7192 51.5181 39.3808C51.8103 39.0425 52.1598 38.8491 52.5875 38.8491Z" fill="#747873"/>
<path d="M156.265 35.7221L160.516 50.3964V35.7221H163.808V59.9178C162.643 60.1706 161.457 60.2463 160.231 60.4482L156.489 46.9108V61.0292C155.324 61.1807 154.261 61.3827 153.157 61.5848V35.7221H156.265ZM222.604 35.7221L224.751 42.5161L227.041 35.7221H230.618L226.468 48.0221L230.618 61.5848C229.391 61.3827 228.165 61.1049 226.938 60.8523L224.587 53.3765L222.195 60.2463C221.009 59.9935 219.865 59.9178 218.679 59.7157L222.89 47.8704L219.088 35.7221H222.604ZM176.034 35.7221V39.7632H170.248V45.1933C171.516 45.1933 173.458 45.1175 174.623 45.1175V49.1585C173.171 49.1585 171.475 49.1585 170.248 49.2343V55.2454C172.17 55.0939 174.091 54.8917 176.034 54.8159V58.7052L166.977 59.5894V35.7221H176.034ZM216.287 35.7221V59.5137C215.224 59.3624 214.12 59.2866 213.077 59.2107V35.7221H216.287ZM204.757 35.7221V54.5887C206.617 54.6391 208.498 54.8162 210.318 54.9423V58.9328C207.394 58.7054 204.47 58.4784 201.486 58.4024V35.7221H204.757ZM188.197 35.7221V39.7633H184.803V58.352C183.7 58.352 182.596 58.352 181.533 58.4024V39.7633H178.139V35.7221H188.197ZM199.441 35.7221V39.7632H193.513V44.9156H197.99V48.9565H193.513V58.1247H190.303V35.7221H199.441Z" fill="#747873"/>
</svg>
