<?xml version="1.0" standalone="no"?>
<!DOCTYPE svg PUBLIC "-//W3C//DTD SVG 20010904//EN"
 "http://www.w3.org/TR/2001/REC-SVG-20010904/DTD/svg10.dtd">
<svg version="1.0" xmlns="http://www.w3.org/2000/svg"
 width="916.000000pt" height="1280.000000pt" viewBox="0 0 916.000000 1280.000000"
 preserveAspectRatio="xMidYMid meet">
<metadata>
Created by potrace 1.15, written by Peter Selinger 2001-2017
</metadata>
<g transform="translate(0.000000,1280.000000) scale(0.100000,-0.100000)"
fill="#000000" stroke="none">
<path d="M1733 12786 c3 -7 451 -785 995 -1727 544 -943 995 -1725 1002 -1738
11 -21 10 -26 -8 -40 -47 -37 -62 -80 -62 -182 0 -108 15 -143 79 -186 34 -23
34 -23 442 -23 l409 0 0 -75 c0 -73 0 -75 -27 -81 -217 -47 -355 -180 -372
-359 -6 -58 -7 -60 -36 -63 -88 -8 -349 -57 -466 -86 -538 -136 -1020 -375
-1459 -722 -162 -128 -472 -436 -594 -589 -414 -522 -672 -1085 -790 -1727
-42 -225 -59 -420 -59 -678 0 -255 10 -391 48 -627 265 -1645 1589 -2944 3240
-3177 262 -37 605 -47 860 -26 816 69 1572 387 2189 921 123 105 347 333 443
449 483 584 769 1255 865 2030 21 167 18 721 -5 890 -25 189 -70 410 -118 580
-325 1154 -1189 2101 -2314 2535 -264 102 -504 164 -851 220 -30 5 -31 7 -36
68 -13 159 -132 289 -318 348 l-55 17 0 73 0 74 405 5 c300 4 411 8 427 18 12
7 35 29 50 49 24 31 29 48 32 115 4 106 -4 142 -43 186 l-33 37 1004 1740
c553 957 1007 1746 1010 1753 4 10 -164 12 -837 10 l-843 -3 -621 -1077 c-342
-593 -623 -1078 -626 -1078 -3 0 -285 485 -627 1078 l-622 1077 -841 3 c-714
2 -841 0 -837 -12z m2075 -3596 c12 -20 23 -20 852 -20 l839 0 12 22 12 22 18
-23 c15 -18 19 -40 19 -93 0 -60 -3 -72 -25 -93 l-24 -25 -391 0 -390 0 0 39
c0 44 -26 71 -68 71 -33 0 -72 -43 -72 -80 l0 -30 -395 0 -396 0 -24 25 c-22
21 -25 33 -25 95 0 99 26 140 58 90z m787 -647 c13 -57 87 -73 124 -27 12 15
21 22 21 16 0 -6 -12 -24 -26 -41 -20 -25 -34 -31 -64 -31 -21 0 -47 8 -60 18
-27 22 -38 90 -19 123 l14 24 3 -30 c1 -16 5 -40 7 -52z"/>
</g>
</svg>
